<svg width="83" height="14" viewBox="0 0 83 14" fill="none" xmlns="http://www.w3.org/2000/svg">
<path d="M11.6484 0.847656C11.4935 1.20182 11.3551 1.51172 11.2334 1.77734C11.1117 2.04297 11.0065 2.26986 10.918 2.45801C10.8184 2.66829 10.7354 2.85645 10.6689 3.02246C10.6136 3.14421 10.5417 3.31022 10.4531 3.52051C10.3646 3.70866 10.2539 3.95768 10.1211 4.26758C9.99935 4.56641 9.83887 4.95378 9.63965 5.42969C9.54004 5.02018 9.41829 4.66048 9.27441 4.35059C9.13053 4.04069 8.97559 3.76953 8.80957 3.53711C8.64355 3.30469 8.46647 3.11654 8.27832 2.97266C8.10124 2.81771 7.92415 2.69043 7.74707 2.59082C7.33757 2.36947 6.90592 2.24772 6.45215 2.22559C5.85449 2.25879 5.38411 2.3584 5.04102 2.52441C4.70898 2.67936 4.46549 2.86198 4.31055 3.07227C4.1556 3.27148 4.07259 3.48177 4.06152 3.70312C4.05046 3.91341 4.07812 4.09049 4.14453 4.23438C4.19987 4.36719 4.39355 4.52214 4.72559 4.69922C5.06868 4.8763 5.47819 5.08105 5.9541 5.31348C6.44108 5.53483 6.96126 5.78939 7.51465 6.07715C8.06803 6.35384 8.57715 6.66374 9.04199 7.00684C9.5179 7.33887 9.91634 7.7041 10.2373 8.10254C10.5693 8.48991 10.752 8.90495 10.7852 9.34766C10.8184 9.91211 10.8128 10.4212 10.7686 10.875C10.7243 11.3288 10.5693 11.7161 10.3037 12.0371C10.0381 12.3581 9.62305 12.6126 9.05859 12.8008C8.50521 12.9889 7.736 13.1051 6.75098 13.1494C5.73275 13.1937 4.89714 13.1383 4.24414 12.9834C3.59115 12.8285 3.0599 12.6182 2.65039 12.3525C2.25195 12.0869 1.95312 11.7936 1.75391 11.4727C1.56576 11.1517 1.42741 10.8473 1.33887 10.5596C1.25033 10.2607 1.18945 10.0062 1.15625 9.7959C1.12305 9.57454 1.06771 9.44173 0.990234 9.39746C0.901693 9.34212 0.813151 9.29232 0.724609 9.24805C0.647135 9.20378 0.564128 9.16504 0.475586 9.13184C0.387044 9.08757 0.298503 9.04883 0.209961 9.01562L5.04102 8.23535C4.76432 8.45671 4.5485 8.66146 4.39355 8.84961C4.24967 9.03776 4.139 9.20378 4.06152 9.34766C3.97298 9.51367 3.91211 9.66862 3.87891 9.8125C3.85677 9.96745 3.90658 10.1611 4.02832 10.3936C4.15007 10.626 4.31608 10.8529 4.52637 11.0742C4.74772 11.2845 5.00228 11.4616 5.29004 11.6055C5.5778 11.7493 5.87663 11.8102 6.18652 11.7881C6.57389 11.7549 6.88932 11.6608 7.13281 11.5059C7.3763 11.3398 7.55892 11.1351 7.68066 10.8916C7.81348 10.6481 7.89095 10.3825 7.91309 10.0947C7.93522 9.80697 7.90755 9.52474 7.83008 9.24805C7.76367 8.96029 7.65299 8.69466 7.49805 8.45117C7.3431 8.19661 7.16048 7.98633 6.9502 7.82031C6.76204 7.6875 6.46875 7.56022 6.07031 7.43848C5.68294 7.31673 5.24577 7.18392 4.75879 7.04004C4.28288 6.89616 3.79036 6.73014 3.28125 6.54199C2.7832 6.35384 2.32943 6.12142 1.91992 5.84473C1.52148 5.56803 1.20052 5.24154 0.957031 4.86523C0.724609 4.48893 0.636068 4.03516 0.691406 3.50391C0.735677 3.05013 0.879557 2.67383 1.12305 2.375C1.3776 2.0651 1.69303 1.82161 2.06934 1.64453C2.45671 1.45638 2.88281 1.31803 3.34766 1.22949C3.82357 1.14095 4.30501 1.09115 4.79199 1.08008C5.29004 1.05794 5.77702 1.06348 6.25293 1.09668C6.73991 1.12988 7.17708 1.16862 7.56445 1.21289C7.95182 1.25716 8.27832 1.30143 8.54395 1.3457C8.82064 1.37891 8.99219 1.40104 9.05859 1.41211C9.34635 1.43424 9.63411 1.42871 9.92188 1.39551C10.1764 1.37337 10.4531 1.32357 10.752 1.24609C11.0618 1.15755 11.3607 1.02474 11.6484 0.847656ZM10.8018 5.34668C11.1338 5.36882 11.4271 5.38542 11.6816 5.39648C11.9473 5.40755 12.1686 5.41862 12.3457 5.42969C12.5449 5.44076 12.722 5.44629 12.877 5.44629C13.0319 5.44629 13.209 5.44076 13.4082 5.42969C13.5853 5.41862 13.8011 5.40202 14.0557 5.37988C14.3213 5.34668 14.6257 5.30241 14.9688 5.24707C14.7031 5.41309 14.4873 5.56803 14.3213 5.71191C14.1663 5.84473 14.0446 5.96647 13.9561 6.07715C13.8564 6.19889 13.79 6.30957 13.7568 6.40918C13.7347 6.49772 13.7126 6.6748 13.6904 6.94043C13.6794 7.19499 13.6683 7.49382 13.6572 7.83691C13.6572 8.16895 13.6628 8.52311 13.6738 8.89941C13.6849 9.27572 13.7015 9.61882 13.7236 9.92871C13.7458 10.2275 13.779 10.4821 13.8232 10.6924C13.8675 10.8916 13.9229 10.9857 13.9893 10.9746C14.0778 10.8971 14.2217 10.637 14.4209 10.1943C14.4984 10.0062 14.5924 9.76823 14.7031 9.48047C14.8138 9.18164 14.9411 8.82194 15.085 8.40137C15.2288 7.96973 15.3893 7.46615 15.5664 6.89062C15.7546 6.3151 15.9648 5.64551 16.1973 4.88184H17.6416C17.6859 5.63444 17.7357 6.29297 17.791 6.85742C17.8464 7.42188 17.9017 7.91439 17.957 8.33496C18.0124 8.74447 18.0622 9.0931 18.1064 9.38086C18.1618 9.65755 18.2171 9.88444 18.2725 10.0615C18.3942 10.4821 18.516 10.709 18.6377 10.7422C18.7373 10.7201 18.8424 10.5928 18.9531 10.3604C19.0749 10.1279 19.1855 9.84017 19.2852 9.49707C19.3958 9.15397 19.4954 8.7832 19.584 8.38477C19.6725 7.97526 19.75 7.59342 19.8164 7.23926C19.8828 6.88509 19.9271 6.5752 19.9492 6.30957C19.9714 6.04395 19.9714 5.87793 19.9492 5.81152C19.916 5.74512 19.8496 5.65104 19.75 5.5293C19.6615 5.42969 19.5397 5.30794 19.3848 5.16406C19.2409 5.02018 19.0417 4.84863 18.7871 4.64941C19.097 4.70475 19.3903 4.74349 19.667 4.76562C19.9548 4.77669 20.2093 4.78776 20.4307 4.79883C20.6852 4.8099 20.9176 4.8099 21.1279 4.79883C21.3493 4.79883 21.6204 4.79329 21.9414 4.78223C22.2181 4.77116 22.5612 4.76562 22.9707 4.76562C23.3913 4.76562 23.8838 4.75456 24.4482 4.73242C23.9502 4.88737 23.5518 5.03678 23.2529 5.18066C22.9652 5.31348 22.7438 5.44076 22.5889 5.5625C22.4007 5.69531 22.2679 5.82259 22.1904 5.94434C22.113 6.11035 21.9912 6.45898 21.8252 6.99023C21.7588 7.21159 21.6758 7.48828 21.5762 7.82031C21.4766 8.14128 21.3604 8.52311 21.2275 8.96582C21.0947 9.40853 20.9453 9.92318 20.7793 10.5098C20.6133 11.0853 20.4251 11.7438 20.2148 12.4854C20.0931 12.4632 19.9658 12.4521 19.833 12.4521C19.7113 12.4411 19.5951 12.4355 19.4844 12.4355H19.1025C18.9697 12.4466 18.8258 12.4577 18.6709 12.4688C18.5381 12.4798 18.3831 12.4964 18.2061 12.5186C18.029 12.5407 17.8353 12.5684 17.625 12.6016L16.6289 8.56738L15.002 12.6016L13.1426 12.5518C12.9102 11.3011 12.722 10.305 12.5781 9.56348C12.4453 8.81087 12.3346 8.23535 12.2461 7.83691C12.1465 7.37207 12.0801 7.04557 12.0469 6.85742C11.9915 6.6582 11.9085 6.46452 11.7979 6.27637C11.7093 6.12142 11.582 5.96094 11.416 5.79492C11.25 5.61784 11.0452 5.46842 10.8018 5.34668ZM22.7383 5.5791L25.793 5.6123C25.6159 6.28743 25.4831 6.86296 25.3945 7.33887C25.3171 7.81478 25.2673 8.21322 25.2451 8.53418C25.2008 8.89941 25.1898 9.20931 25.2119 9.46387C25.2451 9.69629 25.3005 9.94531 25.3779 10.2109C25.4443 10.4323 25.5439 10.6868 25.6768 10.9746C25.8096 11.2624 25.9867 11.5501 26.208 11.8379C26.0752 11.7936 25.9313 11.7604 25.7764 11.7383C25.6214 11.7161 25.4775 11.6995 25.3447 11.6885C25.1898 11.6774 25.0348 11.6774 24.8799 11.6885C24.7249 11.6995 24.5534 11.7161 24.3652 11.7383C24.2103 11.7604 24.0221 11.7881 23.8008 11.8213C23.5794 11.8545 23.347 11.8988 23.1035 11.9541C23.2695 11.4561 23.3968 11.0244 23.4854 10.6592C23.585 10.2939 23.6569 9.98958 23.7012 9.74609C23.7454 9.45833 23.7731 9.22591 23.7842 9.04883C23.7842 8.82747 23.7842 8.57845 23.7842 8.30176C23.7842 8.014 23.7842 7.7373 23.7842 7.47168C23.7842 7.20605 23.7786 6.97363 23.7676 6.77441C23.7565 6.56413 23.7344 6.43132 23.7012 6.37598L23.5352 6.20996C23.4688 6.15462 23.3691 6.07715 23.2363 5.97754C23.1146 5.86686 22.9486 5.73405 22.7383 5.5791ZM23.917 3.02246C24.1494 2.90072 24.3818 2.86751 24.6143 2.92285C24.8577 2.97819 25.0459 3.08333 25.1787 3.23828C25.3115 3.39323 25.3558 3.57585 25.3115 3.78613C25.2783 3.99642 25.1012 4.20117 24.7803 4.40039C24.4593 4.58854 24.1771 4.65495 23.9336 4.59961C23.6901 4.54427 23.5186 4.42806 23.4189 4.25098C23.3193 4.07389 23.3027 3.86914 23.3691 3.63672C23.4355 3.39323 23.6182 3.18848 23.917 3.02246ZM27.5361 13.5977C27.7575 13.4427 27.9346 13.238 28.0674 12.9834C28.2002 12.7288 28.2998 12.4798 28.3662 12.2363C28.4437 11.9486 28.4935 11.6497 28.5156 11.3398C28.5156 11.1517 28.5046 10.8529 28.4824 10.4434C28.4603 10.1003 28.4271 9.62988 28.3828 9.03223C28.3385 8.4235 28.2721 7.6377 28.1836 6.6748C28.0618 6.68587 27.9567 6.69694 27.8682 6.70801C27.7796 6.70801 27.7077 6.70801 27.6523 6.70801H27.4697C27.4144 6.70801 27.348 6.71354 27.2705 6.72461C27.2041 6.73568 27.1156 6.75228 27.0049 6.77441C26.9053 6.79655 26.7835 6.82422 26.6396 6.85742C26.6618 6.76888 26.6729 6.68034 26.6729 6.5918C26.6839 6.49219 26.695 6.40365 26.7061 6.32617C26.7171 6.23763 26.7227 6.15462 26.7227 6.07715V5.82812C26.7227 5.75065 26.7227 5.66764 26.7227 5.5791C26.7337 5.49056 26.7448 5.40202 26.7559 5.31348L28.0674 5.34668C28.012 4.87077 27.9899 4.44466 28.001 4.06836C28.012 3.68099 28.0286 3.34896 28.0508 3.07227C28.084 2.7513 28.1283 2.46908 28.1836 2.22559C28.2611 1.92676 28.3662 1.65007 28.499 1.39551C28.6318 1.14095 28.8145 0.92513 29.0469 0.748047C29.2793 0.570964 29.5671 0.438151 29.9102 0.349609C30.2533 0.25 30.6683 0.200195 31.1553 0.200195C31.7087 0.211263 32.1458 0.283203 32.4668 0.416016C32.7878 0.53776 33.0257 0.698242 33.1807 0.897461C33.3356 1.08561 33.4242 1.30143 33.4463 1.54492C33.4684 1.78841 33.4629 2.02637 33.4297 2.25879C33.4076 2.48014 33.3688 2.6849 33.3135 2.87305C33.2692 3.0612 33.2526 3.19954 33.2637 3.28809C33.2747 3.35449 33.3024 3.44303 33.3467 3.55371C33.3799 3.64225 33.4297 3.75293 33.4961 3.88574C33.5736 4.01855 33.6842 4.16797 33.8281 4.33398C33.651 4.31185 33.474 4.29525 33.2969 4.28418C33.1198 4.26204 32.9538 4.24544 32.7988 4.23438C32.6217 4.22331 32.4502 4.21777 32.2842 4.21777C32.1182 4.22884 31.9466 4.23991 31.7695 4.25098C31.6146 4.27311 31.4486 4.29525 31.2715 4.31738C31.0944 4.32845 30.9284 4.36165 30.7734 4.41699C30.9948 4.26204 31.1663 4.10156 31.2881 3.93555C31.4098 3.76953 31.5039 3.62012 31.5703 3.4873C31.6478 3.33236 31.6976 3.17741 31.7197 3.02246C31.7308 2.83431 31.7197 2.62402 31.6865 2.3916C31.6644 2.14811 31.6146 1.92676 31.5371 1.72754C31.4596 1.52832 31.3656 1.36784 31.2549 1.24609C31.1442 1.11328 31.0114 1.06348 30.8564 1.09668C30.624 1.18522 30.4082 1.40104 30.209 1.74414C30.043 2.0319 29.8825 2.46908 29.7275 3.05566C29.5726 3.63118 29.473 4.43359 29.4287 5.46289C29.639 5.48503 29.8327 5.50163 30.0098 5.5127C30.1979 5.5127 30.3639 5.51823 30.5078 5.5293C30.6738 5.54036 30.8288 5.5459 30.9727 5.5459C31.1165 5.5459 31.277 5.54036 31.4541 5.5293C31.609 5.51823 31.7917 5.5127 32.002 5.5127C32.2122 5.50163 32.4447 5.48503 32.6992 5.46289L32.666 6.32617C32.4668 6.34831 32.2731 6.36491 32.085 6.37598C31.8968 6.38704 31.7308 6.39811 31.5869 6.40918C31.4209 6.42025 31.266 6.43132 31.1221 6.44238C30.9671 6.45345 30.8066 6.46452 30.6406 6.47559C30.4967 6.48665 30.3307 6.50326 30.1426 6.52539C29.9655 6.54753 29.7773 6.56966 29.5781 6.5918C29.7331 7.84245 29.8659 8.85514 29.9766 9.62988C30.0983 10.3936 30.2035 10.9857 30.292 11.4062C30.3805 11.9043 30.458 12.2585 30.5244 12.4688C30.5908 12.6458 30.6683 12.8008 30.7568 12.9336C30.8343 13.0553 30.9284 13.1715 31.0391 13.2822C31.1497 13.3929 31.277 13.4648 31.4209 13.498C31.0667 13.4427 30.7624 13.3984 30.5078 13.3652C30.2533 13.3431 30.0374 13.3265 29.8604 13.3154C29.6611 13.3044 29.4896 13.2988 29.3457 13.2988C29.2129 13.3099 29.0524 13.3265 28.8643 13.3486C28.5433 13.3818 28.1006 13.4648 27.5361 13.5977ZM32.4336 2.54102C32.7656 2.57422 33.0423 2.60189 33.2637 2.62402C33.4961 2.64616 33.6842 2.66276 33.8281 2.67383C33.9941 2.6849 34.127 2.69043 34.2266 2.69043C34.3262 2.7015 34.459 2.7015 34.625 2.69043C34.7689 2.67936 34.957 2.66829 35.1895 2.65723C35.4219 2.63509 35.7152 2.60189 36.0693 2.55762C35.9919 2.66829 35.931 2.7679 35.8867 2.85645C35.8424 2.93392 35.8037 3.00586 35.7705 3.07227L35.6709 3.27148C35.6488 3.33789 35.6266 3.4043 35.6045 3.4707C35.5824 3.52604 35.5602 3.59245 35.5381 3.66992C35.527 3.7474 35.516 3.8304 35.5049 3.91895H38.0615L37.8291 5.26367L35.4883 5.13086C35.4329 5.69531 35.3942 6.13249 35.3721 6.44238C35.3499 6.75228 35.3278 6.97917 35.3057 7.12305L35.2725 7.42188C35.2393 7.84245 35.2061 8.30176 35.1729 8.7998C35.1396 9.28678 35.1286 9.74056 35.1396 10.1611C35.1507 10.5817 35.1895 10.9359 35.2559 11.2236C35.3223 11.5003 35.4385 11.6387 35.6045 11.6387C35.7705 11.6387 35.9255 11.5944 36.0693 11.5059C36.2132 11.4173 36.335 11.3122 36.4346 11.1904C36.5452 11.0687 36.6283 10.9469 36.6836 10.8252C36.7389 10.6924 36.7666 10.5928 36.7666 10.5264C36.7666 10.46 36.75 10.3825 36.7168 10.2939C36.6615 10.1279 36.5618 9.91764 36.418 9.66309C36.7389 9.74056 37.0212 9.81803 37.2646 9.89551C37.3864 9.93978 37.4971 9.98405 37.5967 10.0283C37.7074 10.0726 37.8346 10.1224 37.9785 10.1777C38.1003 10.2331 38.2552 10.2995 38.4434 10.377C38.6315 10.4544 38.8529 10.5485 39.1074 10.6592C38.8639 10.7035 38.6868 10.7754 38.5762 10.875C38.5098 10.9193 38.46 10.9691 38.4268 11.0244C38.3493 11.1462 38.2607 11.3122 38.1611 11.5225C38.0615 11.7217 37.9121 11.9209 37.7129 12.1201C37.5137 12.3193 37.2425 12.4964 36.8994 12.6514C36.5674 12.8063 36.1191 12.8949 35.5547 12.917C34.9681 12.9391 34.5199 12.8395 34.21 12.6182C33.9111 12.3968 33.6898 12.1423 33.5459 11.8545C33.4131 11.5557 33.3356 11.2624 33.3135 10.9746C33.2913 10.6868 33.2747 10.4932 33.2637 10.3936C33.2526 10.2939 33.2526 10.0449 33.2637 9.64648C33.2747 9.24805 33.2913 8.81087 33.3135 8.33496C33.3356 7.84798 33.3577 7.38314 33.3799 6.94043C33.402 6.48665 33.4131 6.15462 33.4131 5.94434C33.4131 5.83366 33.4186 5.71745 33.4297 5.5957C33.4297 5.49609 33.4297 5.39095 33.4297 5.28027C33.4408 5.15853 33.4463 5.04232 33.4463 4.93164L31.0391 4.91504L30.9395 3.96875L33.3633 4.03516C33.3411 3.91341 33.3135 3.80273 33.2803 3.70312C33.2581 3.59245 33.236 3.50391 33.2139 3.4375C33.1807 3.36003 33.1475 3.29362 33.1143 3.23828C33.07 3.18294 33.0202 3.12207 32.9648 3.05566C32.9095 3.00033 32.8376 2.92839 32.749 2.83984C32.6605 2.7513 32.5553 2.65169 32.4336 2.54102ZM48.4707 0.880859C48.8249 0.936198 49.1458 0.986003 49.4336 1.03027C49.7214 1.06348 49.9704 1.09115 50.1807 1.11328C50.4242 1.14648 50.64 1.17415 50.8281 1.19629C51.0605 1.22949 51.4092 1.19076 51.874 1.08008C52.3389 0.958333 52.848 0.847656 53.4014 0.748047C53.9658 0.63737 54.5413 0.576497 55.1279 0.56543C55.7145 0.543294 56.2513 0.648438 56.7383 0.880859C57.2253 1.11328 57.6237 1.3457 57.9336 1.57812C58.2435 1.81055 58.487 2.05957 58.6641 2.3252C58.8522 2.57975 58.985 2.85091 59.0625 3.13867C59.14 3.42643 59.1842 3.74186 59.1953 4.08496C59.1842 4.59408 59.0625 5.08659 58.8301 5.5625C58.7305 5.76172 58.5977 5.97201 58.4316 6.19336C58.2767 6.40365 58.083 6.6084 57.8506 6.80762C57.6182 7.00684 57.3415 7.19499 57.0205 7.37207C56.7106 7.54915 56.3454 7.7041 55.9248 7.83691C56.3343 7.95866 56.6719 8.10254 56.9375 8.26855C57.2142 8.43457 57.4355 8.58952 57.6016 8.7334C57.8008 8.91048 57.9502 9.08203 58.0498 9.24805C58.1715 9.48047 58.2546 9.67969 58.2988 9.8457C58.3431 10.0117 58.3708 10.1722 58.3818 10.3271C58.404 10.471 58.4316 10.6204 58.4648 10.7754C58.498 10.9303 58.57 11.1074 58.6807 11.3066C58.7692 11.4616 58.8743 11.6221 58.9961 11.7881C59.1068 11.932 59.234 12.0869 59.3779 12.2529C59.5329 12.4189 59.721 12.5794 59.9424 12.7344C59.6325 12.7454 59.3447 12.751 59.0791 12.751C58.8245 12.751 58.6032 12.751 58.415 12.751C58.1937 12.751 57.9834 12.7454 57.7842 12.7344C57.585 12.7233 57.3359 12.7178 57.0371 12.7178C56.7826 12.7178 56.4561 12.7178 56.0576 12.7178C55.6702 12.7178 55.1999 12.7233 54.6465 12.7344C54.89 12.5462 55.0892 12.3581 55.2441 12.1699C55.3991 11.9818 55.5208 11.8102 55.6094 11.6553C55.709 11.4782 55.7809 11.3066 55.8252 11.1406C55.8805 10.8418 55.8861 10.5319 55.8418 10.2109C55.8086 9.93424 55.7201 9.62988 55.5762 9.29785C55.4323 8.95475 55.1999 8.61165 54.8789 8.26855C54.5579 8.32389 54.2868 8.36816 54.0654 8.40137C53.8551 8.4235 53.6725 8.44564 53.5176 8.46777C53.3405 8.48991 53.1966 8.50651 53.0859 8.51758C52.9863 8.52865 52.8757 8.53971 52.7539 8.55078C52.6543 8.56185 52.5436 8.57845 52.4219 8.60059C52.3112 8.61165 52.2061 8.62826 52.1064 8.65039C52.0843 9.1263 52.0843 9.54134 52.1064 9.89551C52.1286 10.2386 52.1562 10.5264 52.1895 10.7588C52.2337 11.0355 52.2835 11.2734 52.3389 11.4727C52.3942 11.6719 52.4717 11.8656 52.5713 12.0537C52.6488 12.2087 52.7484 12.3747 52.8701 12.5518C52.9919 12.7178 53.1302 12.8561 53.2852 12.9668C52.9974 12.9668 52.7207 12.9668 52.4551 12.9668C52.2005 12.9668 51.9681 12.9613 51.7578 12.9502C51.5143 12.9502 51.2819 12.9447 51.0605 12.9336C50.8392 12.9225 50.5902 12.917 50.3135 12.917C50.0811 12.917 49.8044 12.917 49.4834 12.917C49.1735 12.917 48.8359 12.9225 48.4707 12.9336C48.7585 12.6348 48.9854 12.3802 49.1514 12.1699C49.3174 11.9596 49.4447 11.7826 49.5332 11.6387C49.6328 11.4837 49.6937 11.3509 49.7158 11.2402C49.738 11.0632 49.7546 10.7477 49.7656 10.2939C49.7878 9.8291 49.8044 9.29785 49.8154 8.7002C49.8265 8.10254 49.832 7.47721 49.832 6.82422C49.832 6.17122 49.8265 5.5625 49.8154 4.99805C49.8044 4.42253 49.7933 3.93001 49.7822 3.52051C49.7712 3.111 49.7601 2.85091 49.749 2.74023C49.7158 2.54102 49.6439 2.3418 49.5332 2.14258C49.4447 1.96549 49.3174 1.76628 49.1514 1.54492C48.9854 1.32357 48.7585 1.10221 48.4707 0.880859ZM54.7461 6.72461C54.8568 6.6582 54.9508 6.5918 55.0283 6.52539C55.1058 6.45898 55.1722 6.35384 55.2275 6.20996C55.2829 6.05501 55.3271 5.83919 55.3604 5.5625C55.4046 5.28581 55.4544 4.90951 55.5098 4.43359C55.554 3.95768 55.5208 3.56478 55.4102 3.25488C55.3105 2.94499 55.1722 2.7015 54.9951 2.52441C54.8291 2.33626 54.641 2.20898 54.4307 2.14258C54.2314 2.0651 54.0544 2.02637 53.8994 2.02637C53.5895 2.02637 53.2852 2.12044 52.9863 2.30859C52.6875 2.49674 52.4606 2.7513 52.3057 3.07227C52.2503 3.21615 52.2005 3.4541 52.1562 3.78613C52.123 4.07389 52.1009 4.47233 52.0898 4.98145C52.0788 5.49056 52.0954 6.16016 52.1396 6.99023C52.5602 7.05664 52.931 7.08431 53.252 7.07324C53.5729 7.05111 53.8441 7.01237 54.0654 6.95703C54.3311 6.90169 54.5579 6.82422 54.7461 6.72461ZM59.8594 5.5791L62.9141 5.6123C62.737 6.28743 62.6042 6.86296 62.5156 7.33887C62.4382 7.81478 62.3883 8.21322 62.3662 8.53418C62.3219 8.89941 62.3109 9.20931 62.333 9.46387C62.3662 9.69629 62.4215 9.94531 62.499 10.2109C62.5654 10.4323 62.665 10.6868 62.7979 10.9746C62.9307 11.2624 63.1077 11.5501 63.3291 11.8379C63.1963 11.7936 63.0524 11.7604 62.8975 11.7383C62.7425 11.7161 62.5986 11.6995 62.4658 11.6885C62.3109 11.6774 62.1559 11.6774 62.001 11.6885C61.846 11.6995 61.6745 11.7161 61.4863 11.7383C61.3314 11.7604 61.1432 11.7881 60.9219 11.8213C60.7005 11.8545 60.4681 11.8988 60.2246 11.9541C60.3906 11.4561 60.5179 11.0244 60.6064 10.6592C60.7061 10.2939 60.778 9.98958 60.8223 9.74609C60.8665 9.45833 60.8942 9.22591 60.9053 9.04883C60.9053 8.82747 60.9053 8.57845 60.9053 8.30176C60.9053 8.014 60.9053 7.7373 60.9053 7.47168C60.9053 7.20605 60.8997 6.97363 60.8887 6.77441C60.8776 6.56413 60.8555 6.43132 60.8223 6.37598L60.6562 6.20996C60.5898 6.15462 60.4902 6.07715 60.3574 5.97754C60.2357 5.86686 60.0697 5.73405 59.8594 5.5791ZM61.0381 3.02246C61.2705 2.90072 61.5029 2.86751 61.7354 2.92285C61.9788 2.97819 62.167 3.08333 62.2998 3.23828C62.4326 3.39323 62.4769 3.57585 62.4326 3.78613C62.3994 3.99642 62.2223 4.20117 61.9014 4.40039C61.5804 4.58854 61.2982 4.65495 61.0547 4.59961C60.8112 4.54427 60.6396 4.42806 60.54 4.25098C60.4404 4.07389 60.4238 3.86914 60.4902 3.63672C60.5566 3.39323 60.7393 3.18848 61.0381 3.02246ZM72.0781 0.283203C72.2884 0.294271 72.5153 0.299805 72.7588 0.299805C72.9691 0.299805 73.207 0.305339 73.4727 0.316406C73.7493 0.316406 74.0371 0.305339 74.3359 0.283203C74.0703 0.404948 73.8379 0.582031 73.6387 0.814453C73.4395 1.04688 73.279 1.2793 73.1572 1.51172C73.0023 1.78841 72.875 2.07617 72.7754 2.375C72.7201 2.55208 72.6758 2.86751 72.6426 3.32129C72.6094 3.764 72.5817 4.28418 72.5596 4.88184C72.5485 5.47949 72.543 6.11035 72.543 6.77441C72.543 7.43848 72.5485 8.07487 72.5596 8.68359C72.5706 9.28125 72.5872 9.8125 72.6094 10.2773C72.6315 10.7422 72.6592 11.0687 72.6924 11.2568C72.7367 11.4782 72.792 11.6885 72.8584 11.8877C72.9137 12.0648 72.9857 12.2474 73.0742 12.4355C73.1628 12.6126 73.2734 12.7565 73.4062 12.8672L71.7129 13.6309C71.6243 13.5091 71.5524 13.3818 71.4971 13.249C71.4417 13.1273 71.3975 13.0166 71.3643 12.917C71.32 12.7952 71.2923 12.6846 71.2812 12.585C71.2591 12.4521 71.237 12.3083 71.2148 12.1533C71.1927 11.9873 71.165 11.8324 71.1318 11.6885C71.1097 11.5335 71.0931 11.4062 71.082 11.3066C71.071 11.207 71.071 11.1462 71.082 11.124C71.0931 11.1019 71.0267 11.2015 70.8828 11.4229C70.7389 11.6331 70.5231 11.8822 70.2354 12.1699C69.9587 12.4466 69.6156 12.7178 69.2061 12.9834C68.7965 13.238 68.3372 13.3984 67.8281 13.4648C67.3079 13.5312 66.8265 13.4316 66.3838 13.166C65.9521 12.9004 65.5814 12.5296 65.2715 12.0537C64.9616 11.5667 64.7236 11.0078 64.5576 10.377C64.4027 9.73503 64.3418 9.08203 64.375 8.41797C64.3971 7.97526 64.4967 7.58236 64.6738 7.23926C64.8509 6.88509 65.0723 6.58073 65.3379 6.32617C65.6146 6.06055 65.9134 5.83919 66.2344 5.66211C66.5664 5.47396 66.8874 5.31901 67.1973 5.19727C67.5182 5.07552 67.8171 4.98698 68.0938 4.93164C68.3704 4.8763 68.5918 4.83757 68.7578 4.81543C68.957 4.80436 69.1839 4.83757 69.4385 4.91504C69.6598 4.98145 69.9144 5.09212 70.2021 5.24707C70.501 5.40202 70.833 5.63444 71.1982 5.94434C71.1318 4.83757 71.071 3.95215 71.0156 3.28809C70.9603 2.61296 70.9049 2.09831 70.8496 1.74414C70.7943 1.32357 70.7445 1.03581 70.7002 0.880859C70.6449 0.770182 70.5729 0.659505 70.4844 0.548828C70.4069 0.460286 70.3073 0.371745 70.1855 0.283203C70.0749 0.183594 69.9421 0.10612 69.7871 0.0507812C70.0749 0.10612 70.3516 0.144857 70.6172 0.166992C70.8828 0.189128 71.1263 0.211263 71.3477 0.233398C71.6022 0.255534 71.8457 0.272135 72.0781 0.283203ZM67.9111 6.47559C67.7008 6.55306 67.5293 6.68587 67.3965 6.87402C67.2747 7.06217 67.1751 7.28906 67.0977 7.55469C67.0202 7.80924 66.9648 8.08594 66.9316 8.38477C66.9095 8.67253 66.8929 8.95475 66.8818 9.23145C66.8818 9.49707 66.8818 9.74056 66.8818 9.96191C66.8818 10.1833 66.8818 10.3493 66.8818 10.46C66.8818 10.5264 66.8929 10.6481 66.915 10.8252C66.9482 10.9912 67.0146 11.1683 67.1143 11.3564C67.2139 11.5335 67.3522 11.694 67.5293 11.8379C67.7174 11.9818 67.9665 12.0537 68.2764 12.0537C68.5309 12.0316 68.8021 11.943 69.0898 11.7881C69.3444 11.6553 69.6322 11.445 69.9531 11.1572C70.2852 10.8584 70.6393 10.4323 71.0156 9.87891C70.9935 9.52474 70.9769 9.23145 70.9658 8.99902C70.9658 8.7666 70.9603 8.57845 70.9492 8.43457C70.9382 8.26855 70.9326 8.13574 70.9326 8.03613V7.78711C70.9326 7.7207 70.9326 7.64876 70.9326 7.57129C70.9326 7.49382 70.9382 7.42188 70.9492 7.35547C70.6393 7.13411 70.3626 6.94596 70.1191 6.79102C69.8867 6.625 69.6543 6.50326 69.4219 6.42578C69.2005 6.33724 68.9681 6.2985 68.7246 6.30957C68.4922 6.30957 68.221 6.36491 67.9111 6.47559ZM78.3037 10.3271C78.6136 10.3271 78.9014 10.2939 79.167 10.2275C79.3883 10.1722 79.5986 10.0837 79.7979 9.96191C80.0081 9.8291 80.1465 9.63542 80.2129 9.38086C80.4342 9.42513 80.6224 9.46387 80.7773 9.49707C80.9323 9.51921 81.0651 9.54134 81.1758 9.56348C81.2975 9.59668 81.4027 9.61882 81.4912 9.62988C81.5798 9.65202 81.6849 9.67415 81.8066 9.69629C81.9173 9.71842 82.0501 9.74609 82.2051 9.7793C82.3711 9.80143 82.5648 9.83464 82.7861 9.87891C82.6201 9.85677 82.4486 9.87337 82.2715 9.92871C82.1055 9.98405 81.945 10.0449 81.79 10.1113C81.613 10.1888 81.4469 10.2829 81.292 10.3936C81.1924 10.46 81.0762 10.5596 80.9434 10.6924C80.8216 10.8252 80.6445 10.9525 80.4121 11.0742C80.1797 11.196 79.8698 11.3011 79.4824 11.3896C79.1061 11.4671 78.6191 11.4948 78.0215 11.4727C77.3021 11.4505 76.6989 11.3232 76.2119 11.0908C75.7249 10.8473 75.332 10.554 75.0332 10.2109C74.7344 9.85677 74.5186 9.47493 74.3857 9.06543C74.2529 8.65592 74.181 8.27409 74.1699 7.91992C74.1589 7.56576 74.264 7.19499 74.4854 6.80762C74.7067 6.42025 75.0166 6.06608 75.415 5.74512C75.8245 5.42415 76.3171 5.16406 76.8926 4.96484C77.4681 4.75456 78.099 4.64941 78.7852 4.64941C79.1836 4.64941 79.5488 4.69922 79.8809 4.79883C80.224 4.88737 80.5339 5.00911 80.8105 5.16406C81.0983 5.31901 81.3473 5.49609 81.5576 5.69531C81.7679 5.88346 81.945 6.07715 82.0889 6.27637C82.2327 6.48665 82.3545 6.70801 82.4541 6.94043C82.5426 7.13965 82.6146 7.36654 82.6699 7.62109C82.7253 7.87565 82.7419 8.13574 82.7197 8.40137C81.8786 8.4235 81.1979 8.4401 80.6777 8.45117C80.1686 8.46224 79.7702 8.46777 79.4824 8.46777H78.7354H78.1709C77.9717 8.46777 77.7116 8.47331 77.3906 8.48438C77.0697 8.49544 76.6768 8.51204 76.2119 8.53418C76.2673 8.97689 76.4056 9.31999 76.627 9.56348C76.8594 9.7959 77.1029 9.97298 77.3574 10.0947C77.6452 10.2275 77.9606 10.305 78.3037 10.3271ZM76.8096 7.33887C77.1637 7.361 77.457 7.3776 77.6895 7.38867C77.9329 7.39974 78.1322 7.41081 78.2871 7.42188C78.4531 7.43294 78.5859 7.43848 78.6855 7.43848H79.1006C79.3773 7.43848 79.8919 7.42188 80.6445 7.38867C80.6113 6.90169 80.5062 6.53092 80.3291 6.27637C80.1631 6.02181 79.986 5.83366 79.7979 5.71191C79.5765 5.5791 79.333 5.50163 79.0674 5.47949C78.348 5.49056 77.8112 5.63997 77.457 5.92773C77.1139 6.21549 76.8981 6.68587 76.8096 7.33887Z" fill="black"/>
</svg>
